<svg width="26" height="26" viewBox="0 0 26 26" fill="none" xmlns="http://www.w3.org/2000/svg">
<path d="M21.5188 21.3134H4.78442C3.90414 21.3123 3.06021 20.9622 2.43775 20.3397C1.81529 19.7173 1.46515 18.8733 1.46411 17.993V7.97742C1.46515 7.09713 1.81529 6.2532 2.43775 5.63074C3.06021 5.00829 3.90414 4.65814 4.78442 4.6571H21.5188C22.3991 4.65814 23.243 5.00829 23.8655 5.63074C24.4879 6.2532 24.8381 7.09713 24.8391 7.97742V17.993C24.8381 18.8733 24.4879 19.7173 23.8655 20.3397C23.243 20.9622 22.3991 21.3123 21.5188 21.3134ZM4.78442 5.82898C4.21462 5.82898 3.66816 6.05533 3.26525 6.45824C2.86234 6.86115 2.63599 7.40762 2.63599 7.97742V17.993C2.63599 18.5628 2.86234 19.1093 3.26525 19.5122C3.66816 19.9151 4.21462 20.1415 4.78442 20.1415H21.5188C22.0886 20.1415 22.6351 19.9151 23.038 19.5122C23.4409 19.1093 23.6672 18.5628 23.6672 17.993V7.97742C23.6672 7.40762 23.4409 6.86115 23.038 6.45824C22.6351 6.05533 22.0886 5.82898 21.5188 5.82898H4.78442Z" fill="#767676"/>
<path d="M13.1517 15.3602C12.4289 15.3614 11.7254 15.1269 11.1478 14.6923L2.02668 7.79381C1.96223 7.74859 1.90757 7.69083 1.86594 7.624C1.82431 7.55718 1.79658 7.48264 1.7844 7.40486C1.77222 7.32708 1.77584 7.24763 1.79504 7.17128C1.81425 7.09493 1.84865 7.02323 1.89618 6.96046C1.94371 6.8977 2.00341 6.84516 2.0717 6.80598C2.13999 6.7668 2.21548 6.74178 2.29365 6.73242C2.37182 6.72307 2.45108 6.72956 2.52669 6.75152C2.6023 6.77348 2.67271 6.81045 2.73371 6.86022L11.8548 13.7665C12.2294 14.0461 12.6843 14.1971 13.1517 14.1971C13.6191 14.1971 14.074 14.0461 14.4486 13.7665L23.5696 6.86022C23.6307 6.81045 23.7011 6.77348 23.7767 6.75152C23.8523 6.72956 23.9315 6.72307 24.0097 6.73242C24.0879 6.74178 24.1634 6.7668 24.2317 6.80598C24.3 6.84516 24.3596 6.8977 24.4072 6.96046C24.4547 7.02323 24.4891 7.09493 24.5083 7.17128C24.5275 7.24763 24.5311 7.32708 24.519 7.40486C24.5068 7.48264 24.479 7.55718 24.4374 7.624C24.3958 7.69083 24.3411 7.74859 24.2767 7.79381L15.1556 14.6923C14.578 15.1269 13.8745 15.3614 13.1517 15.3602Z" fill="#767676"/>
<path d="M2.2804 19.6805C2.16156 19.6807 2.04548 19.6447 1.94756 19.5774C1.84963 19.5101 1.7745 19.4146 1.73212 19.3035C1.68975 19.1925 1.68213 19.0712 1.71029 18.9558C1.73845 18.8403 1.80104 18.7361 1.88978 18.6571L9.07728 12.2469C9.19331 12.1433 9.34574 12.0901 9.50105 12.0989C9.65635 12.1077 9.8018 12.1778 9.9054 12.2938C10.009 12.4098 10.0623 12.5623 10.0535 12.7176C10.0447 12.8729 9.97456 13.0183 9.85853 13.1219L2.67103 19.5321C2.56429 19.6292 2.4247 19.6823 2.2804 19.6805ZM24.0226 19.6805C23.8783 19.6823 23.7387 19.6292 23.632 19.5321L16.4445 13.1219C16.3284 13.0183 16.2583 12.8729 16.2495 12.7176C16.2407 12.5623 16.294 12.4098 16.3976 12.2938C16.5012 12.1778 16.6466 12.1077 16.8019 12.0989C16.9572 12.0901 17.1097 12.1433 17.2257 12.2469L24.4093 18.6571C24.498 18.7361 24.5606 18.8403 24.5888 18.9558C24.617 19.0712 24.6093 19.1925 24.567 19.3035C24.5246 19.4146 24.4495 19.5101 24.3515 19.5774C24.2536 19.6447 24.1375 19.6807 24.0187 19.6805H24.0226Z" fill="#767676"/>
</svg>
